<?xml version="1.0" encoding="UTF-8" standalone="no"?>
<svg
   xmlns:dc="http://purl.org/dc/elements/1.1/"
   xmlns:cc="http://creativecommons.org/ns#"
   xmlns:rdf="http://www.w3.org/1999/02/22-rdf-syntax-ns#"
   xmlns:svg="http://www.w3.org/2000/svg"
   xmlns="http://www.w3.org/2000/svg"
   xmlns:sodipodi="http://sodipodi.sourceforge.net/DTD/sodipodi-0.dtd"
   xmlns:inkscape="http://www.inkscape.org/namespaces/inkscape"
   width="1000"
   height="158.57143"
   viewBox="0 0 1985.8156 315.00962"
   version="1.1"
   id="svg3228"
   sodipodi:docname="A.svg"
   inkscape:version="0.92.4 (5da689c313, 2019-01-14)">
  <metadata
     id="metadata3234">
    <rdf:RDF>
      <cc:Work
         rdf:about="">
        <dc:format>image/svg+xml</dc:format>
        <dc:type
           rdf:resource="http://purl.org/dc/dcmitype/StillImage" />
        <dc:title></dc:title>
      </cc:Work>
    </rdf:RDF>
  </metadata>
  <defs
     id="defs3232" />
  <sodipodi:namedview
     pagecolor="#ffffff"
     bordercolor="#111111"
     borderopacity="1"
     objecttolerance="10"
     gridtolerance="10"
     guidetolerance="10"
     inkscape:pageopacity="0"
     inkscape:pageshadow="2"
     inkscape:window-width="1920"
     inkscape:window-height="1017"
     id="namedview3230"
     showgrid="false"
     fit-margin-top="0"
     fit-margin-left="0"
     fit-margin-right="0"
     fit-margin-bottom="0"
     inkscape:zoom="1.1737589"
     inkscape:cx="490.95344"
     inkscape:cy="9.1545765"
     inkscape:window-x="1912"
     inkscape:window-y="-8"
     inkscape:window-maximized="1"
     inkscape:current-layer="svg3228" />
  <path
     class="logo-fill"
     id="logo-a1"
     d="M 8.4621992,147.57207 C 15.557011,111.38854 47.483661,85.84722 92.890454,85.84722 c 52.501606,0 92.942036,21.99391 92.942036,92.94202 v 131.96349 h -44.69732 l -5.67584,-28.37924 c -15.60859,19.15599 -36.183546,31.92665 -68.110197,31.92665 -37.6025,0 -67.4007073,-23.41288 -67.4007073,-67.40071 0,-43.98783 39.0214623,-72.36707 94.3609903,-72.36707 h 36.893024 v -9.93274 c 0,-24.83184 -18.44651,-32.63613 -39.021468,-32.63613 -15.608584,0 -31.217169,4.96637 -38.31198,25.54132 z m 71.6575938,120.6118 c 24.831847,0 51.082647,-17.02755 51.082647,-45.4068 v -4.25688 H 95.018897 c -23.412877,-0.70948 -37.6025,8.51377 -37.6025,27.66976 0,10.64222 7.804293,21.99392 22.703396,21.99392 z"
     inkscape:connector-curvature="0"
     style="stroke-width:7.09481144" />
  <path
     class="logo-fill"
     id="logo-a2"
     d="m 1071.2649,147.57207 c 7.0948,-36.18353 39.0215,-61.72485 84.4283,-61.72485 52.5016,0 92.942,21.99391 92.942,92.94202 v 131.96349 h -44.6973 l -5.6759,-28.37924 c -15.6086,19.15599 -36.1835,31.92665 -68.1102,31.92665 -37.6025,0 -67.4007,-23.41288 -67.4007,-67.40071 0,-43.98783 39.0215,-72.36707 94.361,-72.36707 h 36.893 v -9.93274 c 0,-24.83184 -18.4465,-32.63613 -39.0214,-32.63613 -15.6086,0 -31.2172,4.96637 -38.312,25.54132 z m 71.6576,120.6118 c 24.8318,0 51.0826,-17.02755 51.0826,-45.4068 v -4.25688 h -36.1835 c -23.4129,0 -37.6025,8.51377 -37.6025,28.37924 0,9.93274 7.8043,21.28444 22.7034,21.28444 z"
     inkscape:connector-curvature="0"
     style="stroke-width:7.09481144" />
  <path
     class="logo-fill"
     id="logo-r"
     d="M 1298.2989,311.46221 V 89.39462 h 54.63 v 36.18354 c 15.6086,-26.2508 40.4404,-39.73094 65.2723,-39.73094 9.9327,0 17.737,1.41896 26.9603,4.25688 l -9.9328,50.37316 c -6.3853,-4.25688 -13.4801,-6.38533 -22.7034,-6.38533 -31.9266,0 -59.5964,26.2508 -59.5964,97.9084 v 78.7524 z"
     inkscape:connector-curvature="0"
     style="stroke-width:7.09481144" />
  <path
     class="logo-fill"
     id="logo-d"
     d="m 1561.5164,85.84722 c 22.7034,0 43.9878,11.35169 53.9205,23.41287 V 0 h 54.6301 v 311.46221 h -54.6301 v -22.70339 c -6.3853,11.3517 -26.2508,26.2508 -53.9205,26.2508 -66.6913,0 -100.7464,-46.11627 -100.7464,-114.22646 0,-68.11019 34.0551,-114.93594 100.7464,-114.93594 z m 7.8043,182.33665 c 28.3792,0 51.0826,-23.41288 51.0826,-67.40071 0,-43.98783 -22.7034,-67.40071 -51.0826,-67.40071 -28.3793,0 -51.0827,23.41288 -51.0827,67.40071 0,43.98783 22.7034,67.40071 51.0827,67.40071 z"
     inkscape:connector-curvature="0"
     style="stroke-width:7.09481144" />
  <path
     class="logo-fill"
     id="logo-s"
     d="m 1867.3027,121.32127 -32.6361,29.79821 c -9.9327,-13.48014 -24.8318,-19.15599 -36.893,-19.15599 -10.6422,0 -20.575,6.38533 -20.575,18.44651 0,9.93273 7.8043,17.02755 21.2845,21.28443 30.5076,11.3517 80.1713,20.57495 80.1713,68.11019 0,40.44042 -30.5077,73.78604 -78.7524,73.78604 -46.1163,0 -77.3334,-32.63613 -87.9756,-59.59642 l 43.2783,-23.41287 c 7.8043,21.28443 22.7034,36.89301 44.6973,36.89301 17.0276,0 27.6698,-7.80429 27.6698,-24.12235 0,-18.44651 -28.3793,-22.7034 -55.3395,-34.0551 -24.1224,-9.93273 -44.6974,-25.54132 -44.6974,-59.59641 0,-34.0551 27.6698,-64.56278 70.9482,-64.56278 29.0887,0 55.3395,14.8991 68.8196,36.18353 z"
     inkscape:connector-curvature="0"
     style="stroke-width:7.09481144" />
  <polygon
     class="logo-fill"
     id="logo-w2"
     points="85,12.6 79.8,34.1 75.4,21.6 74.9,23.1 72.4,31.1 76.4,43.9 83.2,43.9 88.6,23.7 94,43.9 100.8,43.9 110.8,12.6 103,12.6 97.5,34.1 92.2,12.6 "
     transform="matrix(7.0948113,0,0,7.0948113,-0.0515743,0)" />
  <polygon
     class="logo-fill"
     id="logo-w3"
     points="122.1,12.6 116.9,34.1 112.5,21.6 112,23.1 109.5,31.1 113.5,43.9 120.3,43.9 125.7,23.7 131.1,43.9 137.9,43.9 147.9,12.6 140.2,12.6 134.6,34.1 129.3,12.6 "
     transform="matrix(7.0948113,0,0,7.0948113,-0.0515743,0)" />
  <path
     class="logo-fill"
     id="logo-w1"
     d="M 522.83602,89.39462 451.88791,310.75273 H 403.64319 L 365.33121,167.43755 327.01923,311.46221 H 278.77451 L 207.8264,90.1041 h 55.33953 l 39.73094,151.82896 37.6025,-151.82896 h 50.37316 l 37.6025,151.82896 39.73094,-151.82896 z"
     inkscape:connector-curvature="0"
     style="stroke-width:7.09481144" />
  <path
     class="logo-fill"
     id="logo-p"
     d="m 1949.6025,239.80462 c 21.2845,0 36.8931,15.60858 36.8931,36.89302 0,21.28443 -15.6086,36.89302 -36.8931,36.89302 -21.2844,0 -36.893,-15.60859 -36.893,-36.89302 0,-21.28444 16.3181,-36.89302 36.893,-36.89302 z"
     inkscape:connector-curvature="0"
     style="stroke-width:7.09481144" />
</svg>
